<svg width="1316" height="271" viewBox="0 0 1316 271" fill="none" xmlns="http://www.w3.org/2000/svg">
<g clip-path="url(#clip0_158_95)">
<path d="M383.872 97.0881C383.259 90.9006 380.625 86.0937 375.972 82.6676C371.318 79.2415 365.003 77.5284 357.026 77.5284C351.605 77.5284 347.028 78.2954 343.295 79.8295C339.563 81.3125 336.699 83.3835 334.705 86.0426C332.761 88.7017 331.79 91.7188 331.79 95.0938C331.688 97.9063 332.276 100.361 333.554 102.457C334.884 104.554 336.699 106.369 339 107.903C341.301 109.386 343.96 110.69 346.977 111.815C349.994 112.889 353.216 113.81 356.642 114.577L370.756 117.952C377.608 119.486 383.898 121.531 389.625 124.088C395.352 126.645 400.313 129.79 404.506 133.523C408.699 137.256 411.946 141.653 414.247 146.716C416.599 151.778 417.801 157.582 417.852 164.128C417.801 173.741 415.347 182.077 410.489 189.134C405.682 196.139 398.727 201.585 389.625 205.472C380.574 209.307 369.656 211.224 356.872 211.224C344.19 211.224 333.145 209.281 323.736 205.395C314.378 201.509 307.065 195.756 301.798 188.136C296.582 180.466 293.847 170.98 293.591 159.679H325.73C326.088 164.946 327.597 169.344 330.256 172.872C332.966 176.349 336.571 178.983 341.071 180.773C345.622 182.511 350.761 183.381 356.489 183.381C362.114 183.381 366.997 182.562 371.139 180.926C375.332 179.29 378.58 177.014 380.881 174.099C383.182 171.185 384.332 167.835 384.332 164.051C384.332 160.523 383.284 157.557 381.188 155.153C379.142 152.75 376.125 150.705 372.136 149.017C368.199 147.33 363.366 145.795 357.639 144.415L340.534 140.119C327.29 136.898 316.832 131.861 309.162 125.009C301.491 118.156 297.682 108.926 297.733 97.3182C297.682 87.8068 300.213 79.4972 305.327 72.3892C310.491 65.2812 317.574 59.733 326.574 55.7443C335.574 51.7557 345.801 49.7614 357.256 49.7614C368.915 49.7614 379.091 51.7557 387.784 55.7443C396.528 59.733 403.33 65.2812 408.188 72.3892C413.045 79.4972 415.551 87.7301 415.705 97.0881H383.872ZM440.192 209V51.9091H546.045V79.2926H473.406V116.724H540.599V144.108H473.406V181.616H546.352V209H440.192ZM572.45 209V51.9091H634.428C646.291 51.9091 656.416 54.0312 664.803 58.2756C673.24 62.4687 679.658 68.4261 684.055 76.1477C688.504 83.8182 690.729 92.8437 690.729 103.224C690.729 113.656 688.479 122.631 683.979 130.148C679.479 137.614 672.959 143.341 664.419 147.33C655.93 151.318 645.652 153.312 633.584 153.312H592.087V126.619H628.214C634.555 126.619 639.822 125.75 644.016 124.011C648.209 122.273 651.328 119.665 653.374 116.188C655.47 112.71 656.518 108.389 656.518 103.224C656.518 98.0085 655.47 93.6108 653.374 90.0312C651.328 86.4517 648.183 83.7415 643.939 81.9006C639.746 80.0085 634.453 79.0625 628.061 79.0625H605.663V209H572.45ZM657.286 137.511L696.328 209H659.663L621.464 137.511H657.286ZM714.2 209V51.9091H776.178C788.092 51.9091 798.243 54.1847 806.629 58.7358C815.016 63.2358 821.408 69.5 825.805 77.5284C830.254 85.5057 832.479 94.7102 832.479 105.142C832.479 115.574 830.229 124.778 825.729 132.756C821.229 140.733 814.709 146.946 806.169 151.395C797.68 155.844 787.402 158.068 775.334 158.068H735.831V131.452H769.964C776.357 131.452 781.624 130.352 785.766 128.153C789.959 125.903 793.078 122.81 795.124 118.872C797.22 114.884 798.268 110.307 798.268 105.142C798.268 99.9261 797.22 95.375 795.124 91.4886C793.078 87.5511 789.959 84.5085 785.766 82.3608C781.572 80.1619 776.254 79.0625 769.811 79.0625H747.413V209H714.2ZM854.052 209V51.9091H887.265V181.616H954.612V209H854.052ZM1073.64 51.9091H1106.85V153.926C1106.85 165.381 1104.12 175.403 1098.64 183.994C1093.22 192.585 1085.63 199.284 1075.86 204.091C1066.1 208.847 1054.72 211.224 1041.73 211.224C1028.69 211.224 1017.29 208.847 1007.52 204.091C997.751 199.284 990.158 192.585 984.737 183.994C979.317 175.403 976.607 165.381 976.607 153.926V51.9091H1009.82V151.088C1009.82 157.071 1011.12 162.389 1013.73 167.043C1016.39 171.696 1020.12 175.352 1024.93 178.011C1029.74 180.67 1035.34 182 1041.73 182C1048.17 182 1053.77 180.67 1058.53 178.011C1063.33 175.352 1067.04 171.696 1069.65 167.043C1072.31 162.389 1073.64 157.071 1073.64 151.088V51.9091ZM1165.32 51.9091L1197 105.449H1198.23L1230.06 51.9091H1267.57L1219.63 130.455L1268.64 209H1230.44L1198.23 155.384H1197L1164.78 209H1126.74L1175.9 130.455L1127.66 51.9091H1165.32Z" fill="#FF622D"/>
<path d="M120.003 229.902C177.584 229.902 224.263 183.223 224.263 125.642C224.263 68.06 177.584 21.3809 120.003 21.3809C62.4213 21.3809 15.7422 68.06 15.7422 125.642C15.7422 183.223 62.4213 229.902 120.003 229.902Z" stroke="#FF622D" stroke-width="31.034"/>
<path d="M119.305 199.288C159.612 199.288 192.287 166.613 192.287 126.306C192.287 85.9987 159.612 53.3233 119.305 53.3233C78.9976 53.3233 46.3223 85.9987 46.3223 126.306C46.3223 166.613 78.9976 199.288 119.305 199.288Z" fill="#1E293B"/>
<path d="M96.209 156.817C102.148 156.817 106.963 152.003 106.963 146.063C106.963 140.124 102.148 135.309 96.209 135.309C90.2698 135.309 85.4551 140.124 85.4551 146.063C85.4551 152.003 90.2698 156.817 96.209 156.817Z" fill="#FF622D"/>
<path d="M144.865 156.817C150.805 156.817 155.619 152.003 155.619 146.063C155.619 140.124 150.805 135.309 144.865 135.309C138.926 135.309 134.111 140.124 134.111 146.063C134.111 152.003 138.926 156.817 144.865 156.817Z" fill="#FF622D"/>
<path d="M96.002 114.788C101.941 114.788 106.756 109.973 106.756 104.034C106.756 98.0945 101.941 93.2798 96.002 93.2798C90.0628 93.2798 85.248 98.0945 85.248 104.034C85.248 109.973 90.0628 114.788 96.002 114.788Z" fill="#FF622D"/>
<path d="M144.865 115.079C150.805 115.079 155.619 110.264 155.619 104.325C155.619 98.3854 150.805 93.5707 144.865 93.5707C138.926 93.5707 134.111 98.3854 134.111 104.325C134.111 110.264 138.926 115.079 144.865 115.079Z" fill="#FF622D"/>
<path d="M247.151 228.207L202.366 187.83C196.546 182.583 187.575 183.048 182.328 188.868C177.081 194.688 177.545 203.659 183.365 208.906L228.15 249.282C233.97 254.529 242.941 254.064 248.188 248.244C253.435 242.425 252.971 233.453 247.151 228.207Z" fill="#FF622D"/>
</g>
<defs>
<clipPath id="clip0_158_95">
<rect width="1315.53" height="271" fill="white"/>
</clipPath>
</defs>
</svg>
