<svg width="1283" height="271" viewBox="0 0 1283 271" fill="none" xmlns="http://www.w3.org/2000/svg">
<g clip-path="url(#clip0_158_95)">
<path d="M121.514 248.436C180.998 248.436 229.221 199.537 229.221 139.218C229.221 78.8986 180.998 30 121.514 30C62.0287 30 13.8066 78.8986 13.8066 139.218C13.8066 199.537 62.0287 248.436 121.514 248.436Z" stroke="#FF622D" stroke-width="30"/>
<path d="M121.73 219.75C166.085 219.75 202.041 183.793 202.041 139.438C202.041 95.0835 166.085 59.1267 121.73 59.1267C77.3748 59.1267 41.418 95.0835 41.418 139.438C41.418 183.793 77.3748 219.75 121.73 219.75Z" fill="#1E293B"/>
<path d="M100.684 172.04C106.727 172.04 111.627 167.141 111.627 161.097C111.627 155.053 106.727 150.154 100.684 150.154C94.6398 150.154 89.7402 155.053 89.7402 161.097C89.7402 167.141 94.6398 172.04 100.684 172.04Z" fill="#FF622D"/>
<path d="M147.033 172.04C153.077 172.04 157.977 167.141 157.977 161.097C157.977 155.053 153.077 150.154 147.033 150.154C140.989 150.154 136.09 155.053 136.09 161.097C136.09 167.141 140.989 172.04 147.033 172.04Z" fill="#FF622D"/>
<path d="M100.684 128.04C106.727 128.04 111.627 123.141 111.627 117.097C111.627 111.053 106.727 106.154 100.684 106.154C94.6398 106.154 89.7402 111.053 89.7402 117.097C89.7402 123.141 94.6398 128.04 100.684 128.04Z" fill="#FF622D"/>
<path d="M147.033 128.04C153.077 128.04 157.977 123.141 157.977 117.097C157.977 111.053 153.077 106.154 147.033 106.154C140.989 106.154 136.09 111.053 136.09 117.097C136.09 123.141 140.989 128.04 147.033 128.04Z" fill="#FF622D"/>
<path d="M257.21 246.318L212.684 204.097C206.898 198.611 197.759 198.854 192.273 204.64C186.786 210.426 187.029 219.564 192.815 225.051L237.342 267.271C243.128 272.758 252.266 272.515 257.753 266.729C263.239 260.942 262.996 251.804 257.21 246.318Z" fill="#FF622D"/>
<path d="M374.999 101.088C374.385 94.9006 371.752 90.0937 367.099 86.6676C362.445 83.2415 356.13 81.5284 348.153 81.5284C342.732 81.5284 338.155 82.2954 334.422 83.8295C330.689 85.3125 327.826 87.3835 325.831 90.0426C323.888 92.7017 322.917 95.7188 322.917 99.0938C322.814 101.906 323.403 104.361 324.681 106.457C326.01 108.554 327.826 110.369 330.127 111.903C332.428 113.386 335.087 114.69 338.104 115.815C341.121 116.889 344.343 117.81 347.769 118.577L361.883 121.952C368.735 123.486 375.025 125.531 380.752 128.088C386.479 130.645 391.439 133.79 395.633 137.523C399.826 141.256 403.073 145.653 405.374 150.716C407.726 155.778 408.928 161.582 408.979 168.128C408.928 177.741 406.474 186.077 401.616 193.134C396.809 200.139 389.854 205.585 380.752 209.472C371.701 213.307 360.783 215.224 347.999 215.224C335.317 215.224 324.272 213.281 314.863 209.395C305.505 205.509 298.192 199.756 292.925 192.136C287.709 184.466 284.974 174.98 284.718 163.679H316.857C317.215 168.946 318.724 173.344 321.383 176.872C324.093 180.349 327.698 182.983 332.198 184.773C336.749 186.511 341.888 187.381 347.616 187.381C353.241 187.381 358.124 186.562 362.266 184.926C366.459 183.29 369.707 181.014 372.008 178.099C374.309 175.185 375.459 171.835 375.459 168.051C375.459 164.523 374.411 161.557 372.314 159.153C370.269 156.75 367.252 154.705 363.263 153.017C359.326 151.33 354.493 149.795 348.766 148.415L331.661 144.119C318.417 140.898 307.959 135.861 300.289 129.009C292.618 122.156 288.809 112.926 288.86 101.318C288.809 91.8068 291.34 83.4972 296.454 76.3892C301.618 69.2812 308.701 63.733 317.701 59.7443C326.701 55.7557 336.928 53.7614 348.383 53.7614C360.042 53.7614 370.218 55.7557 378.911 59.7443C387.655 63.733 394.457 69.2812 399.314 76.3892C404.172 83.4972 406.678 91.7301 406.831 101.088H374.999ZM431.319 213V55.9091H537.172V83.2926H464.532V120.724H531.726V148.108H464.532V185.616H537.479V213H431.319ZM563.577 213V55.9091H625.555C637.418 55.9091 647.543 58.0312 655.93 62.2756C664.367 66.4687 670.785 72.4261 675.182 80.1477C679.631 87.8182 681.856 96.8437 681.856 107.224C681.856 117.656 679.606 126.631 675.106 134.148C670.606 141.614 664.086 147.341 655.546 151.33C647.057 155.318 636.779 157.312 624.711 157.312H583.214V130.619H619.341C625.682 130.619 630.949 129.75 635.143 128.011C639.336 126.273 642.455 123.665 644.501 120.188C646.597 116.71 647.645 112.389 647.645 107.224C647.645 102.009 646.597 97.6108 644.501 94.0312C642.455 90.4517 639.31 87.7415 635.066 85.9006C630.873 84.0085 625.58 83.0625 619.188 83.0625H596.79V213H563.577ZM648.412 141.511L687.455 213H650.79L612.591 141.511H648.412ZM705.327 213V55.9091H767.305C779.219 55.9091 789.37 58.1847 797.756 62.7358C806.143 67.2358 812.535 73.5 816.932 81.5284C821.381 89.5057 823.606 98.7102 823.606 109.142C823.606 119.574 821.356 128.778 816.856 136.756C812.356 144.733 805.836 150.946 797.296 155.395C788.807 159.844 778.529 162.068 766.461 162.068H726.958V135.452H761.091C767.483 135.452 772.751 134.352 776.893 132.153C781.086 129.903 784.205 126.81 786.251 122.872C788.347 118.884 789.395 114.307 789.395 109.142C789.395 103.926 788.347 99.375 786.251 95.4886C784.205 91.5511 781.086 88.5085 776.893 86.3608C772.699 84.1619 767.381 83.0625 760.938 83.0625H738.54V213H705.327ZM845.179 213V55.9091H878.392V185.616H945.738V213H845.179ZM1064.76 55.9091H1097.98V157.926C1097.98 169.381 1095.24 179.403 1089.77 187.994C1084.35 196.585 1076.76 203.284 1066.99 208.091C1057.22 212.847 1045.84 215.224 1032.86 215.224C1019.82 215.224 1008.41 212.847 998.645 208.091C988.878 203.284 981.285 196.585 975.864 187.994C970.444 179.403 967.733 169.381 967.733 157.926V55.9091H1000.95V155.088C1000.95 161.071 1002.25 166.389 1004.86 171.043C1007.52 175.696 1011.25 179.352 1016.06 182.011C1020.86 184.67 1026.46 186 1032.86 186C1039.3 186 1044.9 184.67 1049.65 182.011C1054.46 179.352 1058.17 175.696 1060.78 171.043C1063.44 166.389 1064.76 161.071 1064.76 155.088V55.9091ZM1156.45 55.9091L1188.12 109.449H1189.35L1221.18 55.9091H1258.69L1210.75 134.455L1259.77 213H1221.57L1189.35 159.384H1188.12L1155.91 213H1117.86L1167.03 134.455L1118.78 55.9091H1156.45Z" fill="#FF622D"/>
</g>
<defs>
<clipPath id="clip0_158_95">
<rect width="1283" height="271" fill="white"/>
</clipPath>
</defs>
</svg>
